# xmcd
#
# Track frame offsets:
#	150
#	10728
#	20500
#	35952
#	46426
#	58424
#	78648
#	92798
#	106493
#	123234
#	135478
#	155044
#	185625
#	204524
#	223461
#
# Disc length: 3273 seconds
# Revision: 0
# Processed by: cddbd v1.5.2PL0 Copyright (c) Steve Scherf et al.
# Submitted via: dBpowerAMP V12.0
#
DISCID=e30cc70f
DTITLE=Pretty Things - Bouquets From A Cloudy Sky
DYEAR=1900
DGENRE=Blues
TTITLE0=Rosalyn
TTITLE1=Don't Bring Me Down
TTITLE2=Mama Keep Your Big Mouth Shut
TTITLE3=Midnight To Six Man
TTITLE4=Come See Me
TTITLE5=Defecting Grey
TTITLE6=S.F. Sorrow Is Born
TTITLE7=Alexander
TTITLE8=Talkin' About The Good Times
TTITLE9=The Journey
TTITLE10=Grass
TTITLE11=Dream - Joey
TTITLE12=Office Love
TTITLE13=The Beat Goes On
TTITLE14=Helter Skelter
EXTD=
EXTT0=
EXTT1=
EXTT2=
EXTT3=
EXTT4=
EXTT5=
EXTT6=
EXTT7=
EXTT8=
EXTT9=
EXTT10=
EXTT11=
EXTT12=
EXTT13=
EXTT14=
PLAYORDER=
